<svg xmlns="http://www.w3.org/2000/svg" viewBox="0 0 760 372" role="img" aria-label="契約記述は宣言、放棄、生成の一周を回った" font-size="13"><text x="24" y="28" font-size="15" font-weight="600" fill="var(--cds-text-primary)">契約記述は「宣言 → 放棄 → 生成」の一周を回った</text><text x="24" y="48" font-size="11.5" fill="var(--cds-text-secondary)">XML が持っていた「機械が検証し生成する」は、軽い記法で戻ってきた</text><g><g><line x1="236" x2="236" y1="84" y2="350" stroke="var(--cds-chart-grid)"></line><text x="236" y="74" text-anchor="middle" font-size="11.5" fill="var(--cds-text-secondary)">1997</text></g><g><line x1="295.95893223819303" x2="295.95893223819303" y1="84" y2="350" stroke="var(--cds-chart-grid)"></line><text x="295.95893223819303" y="74" text-anchor="middle" font-size="11.5" fill="var(--cds-text-secondary)">2000</text></g><g><line x1="355.97262149212867" x2="355.97262149212867" y1="84" y2="350" stroke="var(--cds-chart-grid)"></line><text x="355.97262149212867" y="74" text-anchor="middle" font-size="11.5" fill="var(--cds-text-secondary)">2003</text></g><g><line x1="415.9863107460643" x2="415.9863107460643" y1="84" y2="350" stroke="var(--cds-chart-grid)"></line><text x="415.9863107460643" y="74" text-anchor="middle" font-size="11.5" fill="var(--cds-text-secondary)">2006</text></g><g><line x1="476" x2="476" y1="84" y2="350" stroke="var(--cds-chart-grid)"></line><text x="476" y="74" text-anchor="middle" font-size="11.5" fill="var(--cds-text-secondary)">2009</text></g><g><line x1="535.958932238193" x2="535.958932238193" y1="84" y2="350" stroke="var(--cds-chart-grid)"></line><text x="535.958932238193" y="74" text-anchor="middle" font-size="11.5" fill="var(--cds-text-secondary)">2012</text></g><g><line x1="595.9726214921286" x2="595.9726214921286" y1="84" y2="350" stroke="var(--cds-chart-grid)"></line><text x="595.9726214921286" y="74" text-anchor="middle" font-size="11.5" fill="var(--cds-text-secondary)">2015</text></g><g><line x1="655.9863107460644" x2="655.9863107460644" y1="84" y2="350" stroke="var(--cds-chart-grid)"></line><text x="655.9863107460644" y="74" text-anchor="middle" font-size="11.5" fill="var(--cds-text-secondary)">2018</text></g><g><line x1="716" x2="716" y1="84" y2="350" stroke="var(--cds-chart-grid)"></line><text x="716" y="74" text-anchor="middle" font-size="11.5" fill="var(--cds-text-secondary)">2021</text></g><line x1="236" x2="716" y1="84" y2="84" stroke="var(--cds-chart-axis)" stroke-width="1.25"></line></g><line x1="612.8377823408624" x2="612.8377823408624" y1="84" y2="350" stroke="var(--cds-chart-categorical-1)" stroke-width="1.25" stroke-dasharray="4 4"></line><g><line x1="236" x2="258.17659137577004" y1="110" y2="110" stroke="var(--cds-chart-grid)"></line><path d="M258.17659137577004 103l7 7l-7 7l-7 -7z" fill="var(--cds-chart-axis)"></path><text x="270.17659137577004" y="114" font-size="11.5" font-weight="400" fill="var(--cds-text-secondary)">1998</text></g><g><line x1="236" x2="294.9185489390828" y1="140" y2="140" stroke="var(--cds-chart-grid)"></line><path d="M294.9185489390828 133l7 7l-7 7l-7 -7z" fill="var(--cds-chart-axis)"></path><text x="306.9185489390828" y="144" font-size="11.5" font-weight="400" fill="var(--cds-text-secondary)">1999</text></g><g><line x1="236" x2="319.9972621492129" y1="170" y2="170" stroke="var(--cds-chart-grid)"></line><path d="M319.9972621492129 163l7 7l-7 7l-7 -7z" fill="var(--cds-chart-axis)"></path><text x="331.9972621492129" y="174" font-size="11.5" font-weight="400" fill="var(--cds-text-secondary)">2001</text></g><g><line x1="236" x2="398.62833675564684" y1="200" y2="200" stroke="var(--cds-chart-grid)"></line><path d="M398.62833675564684 193l7 7l-7 7l-7 -7z" fill="var(--cds-chart-axis)"></path><text x="410.62833675564684" y="204" font-size="11.5" font-weight="400" fill="var(--cds-text-secondary)">2005</text></g><g><line x1="236" x2="425.8973305954826" y1="230" y2="230" stroke="var(--cds-chart-grid)"></line><path d="M425.8973305954826 223l7 7l-7 7l-7 -7z" fill="var(--cds-chart-axis)"></path><text x="437.8973305954826" y="234" font-size="11.5" font-weight="400" fill="var(--cds-text-secondary)">2006</text></g><g><line x1="236" x2="612.8377823408624" y1="260" y2="260" stroke="var(--cds-chart-grid)"></line><path d="M612.8377823408624 253l7 7l-7 7l-7 -7z" fill="var(--cds-chart-categorical-1)"></path><text x="624.8377823408624" y="264" font-size="11.5" font-weight="600" fill="var(--cds-text-primary)">2015</text></g><g><line x1="236" x2="609.0047912388775" y1="290" y2="290" stroke="var(--cds-chart-grid)"></line><path d="M609.0047912388775 283l7 7l-7 7l-7 -7z" fill="var(--cds-chart-axis)"></path><text x="621.0047912388775" y="294" font-size="11.5" font-weight="400" fill="var(--cds-text-secondary)">2015</text></g><g><line x1="236" x2="692.6187542778919" y1="320" y2="320" stroke="var(--cds-chart-grid)"></line><path d="M692.6187542778919 313l7 7l-7 7l-7 -7z" fill="var(--cds-chart-axis)"></path><text x="704.6187542778919" y="324" font-size="11.5" font-weight="400" fill="var(--cds-text-secondary)">2019</text></g><text x="24" y="114" fill="var(--cds-text-primary)">XML 1.0 — 構造を宣言し検証</text><text x="24" y="144" fill="var(--cds-text-primary)">SOAP — メッセージの封筒</text><text x="24" y="174" fill="var(--cds-text-primary)">WSDL / XML Schema — 契約</text><text x="24" y="204" fill="var(--cds-text-primary)">Ajax — 名前だけ XML</text><text x="24" y="234" fill="var(--cds-text-primary)">JSON(RFC 4627) — 契約を手放す</text><text x="24" y="264" font-weight="600" fill="var(--cds-text-primary)">OpenAPI — 契約から生成へ</text><text x="24" y="294" fill="var(--cds-text-primary)">gRPC / protobuf</text><text x="24" y="324" fill="var(--cds-text-primary)">sqlc — SQL から型を生成</text></svg>
